<?xml version="1.0" encoding="utf-8"?>
<!-- Generated by Mocodo 4.3.2 -->
<svg width="540" height="154" viewBox="0 0 540 154" xmlns="http://www.w3.org/2000/svg">
<rect x="0" y="0" width="540" height="154" fill="#f5f5f5" stroke="none" stroke-width="0"/>

<!-- Association VIENT_DE -->
<g>
	<line x1="229" y1="77" x2="118" y2="77" stroke="#bf812d" stroke-width="2"/>
	<line x1="29" y1="77" x2="118" y2="77" stroke="#bf812d" stroke-width="2"/>
	<g>
		<path d="M141 52 a14 14 90 0 1 14 14 V77 h-74 V66 a14 14 90 0 1 14 -14" fill="#dfc27d" stroke="#dfc27d" stroke-width="0"/>
		<path d="M155 77 v11 a14 14 90 0 1 -14 14 H95 a14 14 90 0 1 -14 -14 V77 H74" fill="#f6e8c3" stroke="#f6e8c3" stroke-width="0"/>
		<rect x="81" y="52" width="74" height="50" fill="none" rx="14" stroke="#bf812d" stroke-width="2"/>
		<line x1="81" y1="77" x2="155" y2="77" stroke="#bf812d" stroke-width="1"/>
		<text x="89" y="69.75" fill="#000000" font-family="Verdana" font-size="12">VIENT DE</text>
	</g>
	<text x="161" y="94" fill="#01665e" font-family="Verdana" font-size="12">1,1</text>
	<text x="54" y="94" fill="#01665e" font-family="Verdana" font-size="12">0,N</text>
</g>

<!-- Association EST_DE_TYPE -->
<g>
	<line x1="229" y1="77" x2="350" y2="77" stroke="#bf812d" stroke-width="2"/>
	<line x1="480" y1="77" x2="350" y2="77" stroke="#bf812d" stroke-width="2"/>
	<g>
		<path d="M383 52 a14 14 90 0 1 14 14 V77 h-94 V66 a14 14 90 0 1 14 -14" fill="#dfc27d" stroke="#dfc27d" stroke-width="0"/>
		<path d="M397 77 v11 a14 14 90 0 1 -14 14 H317 a14 14 90 0 1 -14 -14 V77 H94" fill="#f6e8c3" stroke="#f6e8c3" stroke-width="0"/>
		<rect x="303" y="52" width="94" height="50" fill="none" rx="14" stroke="#bf812d" stroke-width="2"/>
		<line x1="303" y1="77" x2="397" y2="77" stroke="#bf812d" stroke-width="1"/>
		<text x="311" y="69.75" fill="#000000" font-family="Verdana" font-size="12">EST DE TYPE</text>
	</g>
	<text x="276" y="94" fill="#01665e" font-family="Verdana" font-size="12">1,N</text>
	<text x="402" y="94" fill="#01665e" font-family="Verdana" font-size="12">0,N</text>
</g>

<!-- Entity PAYS -->
<g>
	<g>
		<rect x="9" y="52" width="40" height="25" fill="#80cdc1" stroke="none" stroke-width="0" opacity="1"/>
		<rect x="9" y="77" width="40" height="25" fill="#c7eae5" stroke="none" stroke-width="0" opacity="1"/>
		<rect x="9" y="52" width="40" height="50" fill="none" stroke="#35978f" stroke-width="2" opacity="1"/>
		<line x1="9" y1="77" x2="49" y2="77" stroke="#35978f" stroke-width="1"/>
	</g>
	<text x="15" y="69.75" fill="#000000" font-family="Verdana" font-size="12">Pays</text>
	<text x="14" y="94.8" fill="#000000" font-family="Verdana" font-size="12">nom</text>
	<line x1="14" y1="97" x2="42" y2="97" stroke="#000000" stroke-width="1"/>
</g>

<!-- Entity CAFE -->
<g>
	<g>
		<rect x="187" y="9" width="84" height="25" fill="#80cdc1" stroke="none" stroke-width="0" opacity="1"/>
		<rect x="187" y="34" width="84" height="111" fill="#c7eae5" stroke="none" stroke-width="0" opacity="1"/>
		<rect x="187" y="9" width="84" height="136" fill="none" stroke="#35978f" stroke-width="2" opacity="1"/>
		<line x1="187" y1="34" x2="271" y2="34" stroke="#35978f" stroke-width="1"/>
	</g>
	<text x="215" y="26.75" fill="#000000" font-family="Verdana" font-size="12">Café</text>
	<text x="192" y="51.8" fill="#000000" font-family="Verdana" font-size="12">nom</text>
	<line x1="192" y1="54" x2="220" y2="54" stroke="#000000" stroke-width="1"/>
	<text x="192" y="68.8" fill="#000000" font-family="Verdana" font-size="12">référence</text>
	<text x="192" y="85.8" fill="#000000" font-family="Verdana" font-size="12">description</text>
	<text x="192" y="102.8" fill="#000000" font-family="Verdana" font-size="12">prix au kilo</text>
	<text x="192" y="119.8" fill="#000000" font-family="Verdana" font-size="12">disponibilité</text>
	<text x="192" y="136.8" fill="#000000" font-family="Verdana" font-size="12">image</text>
</g>

<!-- Entity CARACTERISTIQUE -->
<g>
	<g>
		<rect x="429" y="52" width="102" height="25" fill="#80cdc1" stroke="none" stroke-width="0" opacity="1"/>
		<rect x="429" y="77" width="102" height="25" fill="#c7eae5" stroke="none" stroke-width="0" opacity="1"/>
		<rect x="429" y="52" width="102" height="50" fill="none" stroke="#35978f" stroke-width="2" opacity="1"/>
		<line x1="429" y1="77" x2="531" y2="77" stroke="#35978f" stroke-width="1"/>
	</g>
	<text x="434" y="69.75" fill="#000000" font-family="Verdana" font-size="12">Caractéristique</text>
	<text x="434" y="94.8" fill="#000000" font-family="Verdana" font-size="12">nom</text>
	<line x1="434" y1="97" x2="462" y2="97" stroke="#000000" stroke-width="1"/>
</g>
</svg>